<?xml version="1.0" encoding="UTF-8"?>
<svg id="Layer_2" data-name="Layer 2" xmlns="http://www.w3.org/2000/svg" viewBox="0 0 180 180">
  <defs>
    <style>
      .cls-1 {
        fill: #7ac943;
      }
    </style>
  </defs>
  <g id="Layer_1-2" data-name="Layer 1">
    <g>
      <rect class="cls-1" width="180" height="180"/>
      <g>
        <rect x="126" y="126" width="36" height="36" rx="9" ry="9"/>
        <path d="M162,45V27c0-4.97-4.03-9-9-9h-41.27c-2.39,0-4.68,.95-6.36,2.64l-9,9c-3.51,3.51-9.21,3.51-12.73,0l-9-9c-1.69-1.69-3.98-2.64-6.36-2.64H27c-4.97,0-9,4.03-9,9v126c0,4.97,4.03,9,9,9h18c4.97,0,9-4.03,9-9V81c0-4.97,4.03-9,9-9h0c4.97,0,9,4.03,9,9v72c0,4.97,4.03,9,9,9h18c4.97,0,9-4.03,9-9v-36c0-4.97,4.03-9,9-9h36c4.97,0,9-4.03,9-9v-18c0-4.97-4.03-9-9-9h-36c-4.97,0-9-4.03-9-9h0c0-4.97,4.03-9,9-9h36c4.97,0,9-4.03,9-9Z"/>
      </g>
    </g>
  </g>
</svg>