<?xml version="1.0" encoding="UTF-8"?>
<svg id="Layer_1" data-name="Layer 1" xmlns="http://www.w3.org/2000/svg" viewBox="0 0 542.18 184.14">
  <defs>
    <style>
      .cls-1 {
        fill: #fff;
      }

      .cls-2 {
        fill: #802bb1;
      }
    </style>
  </defs>
  <path class="cls-2" d="M178.56,123.45c-.24,.66-69.56-25.2-69.83-24.55s67.48,30.42,67.19,31.05-67.45-30.4-67.76-29.77,64.96,35.47,64.63,36.08-64.93-35.47-65.29-34.87,62.05,40.35,61.66,40.94-62-40.37-62.41-39.8,58.75,45.02,58.32,45.57-58.7-45.03-59.15-44.49,55.1,49.41,54.63,49.94-55.06-49.42-55.55-48.92,51.13,53.51,50.63,54-51.09-53.51-51.62-53.05,46.87,57.28,46.33,57.72-46.84-57.27-47.4-56.85,42.35,60.7,41.78,61.1-42.33-60.68-42.92-60.3,37.6,63.75,36.99,64.11-37.58-63.73-38.2-63.4,32.64,66.43,32.01,66.74-32.62-66.41-33.26-66.12,27.49,68.72,26.83,68.98-27.47-68.7-28.13-68.46,22.18,70.61,21.51,70.82-22.16-70.59-22.84-70.41,16.72,72.1,16.04,72.26-16.7-72.08-17.39-71.94,11.16,73.17,10.46,73.27-11.12-73.14-11.82-73.07,5.51,73.81,4.81,73.86-5.47-73.78-6.17-73.76-.19,74.01-.9,74.01,.24-73.99-.47-74.01-5.9,73.78-6.6,73.72,5.95-73.75,5.25-73.83-11.57,73.1-12.27,72.99,11.6-73.07,10.91-73.21-17.15,72-17.84,71.84,17.16-71.97,16.48-72.16-22.59,70.48-23.26,70.27,22.57-70.46,21.9-70.7-27.84,68.58-28.49,68.31,27.81-68.56,27.17-68.85-32.96,66.27-33.58,65.96,32.95-66.24,32.34-66.58-37.93,63.55-38.53,63.19,37.95-63.51,37.36-63.9-42.71,60.44-43.29,60.04,42.73-60.4,42.17-60.83-47.25,56.97-47.79,56.52,47.26-56.92,46.74-57.39-51.5,53.16-52.01,52.67,51.51-53.11,51.02-53.62-55.44,49.04-55.9,48.51,55.44-49,54.99-49.54-59.03,44.64-59.46,44.08,59.02-44.61,58.62-45.19S14.95,142.45,14.57,141.86s62.26-39.98,61.9-40.58S11.33,136.41,11,135.79s65.12-35.12,64.81-35.75S8.18,130.12,7.9,129.48s67.6-30.06,67.34-30.72S5.52,123.61,5.29,122.94s69.7-24.83,69.49-25.5S3.36,116.91,3.18,116.23s71.39-19.44,71.23-20.12S1.72,110.05,1.59,109.36s72.67-13.92,72.56-14.61S.6,103.08,.52,102.38s73.52-8.3,73.47-9S.03,96.04,0,95.34s73.94-2.61,73.94-3.32S0,88.97,.02,88.26s73.92,3.1,73.98,2.4S.5,81.91,.59,81.21s73.46,8.79,73.57,8.09S1.56,74.93,1.69,74.23s72.57,14.4,72.73,13.72S3.14,68.06,3.33,67.38s71.26,19.89,71.48,19.22S5.23,61.36,5.47,60.7s69.56,25.2,69.83,24.55S7.82,54.84,8.11,54.2s67.45,30.4,67.76,29.77S10.91,48.5,11.25,47.89s64.93,35.47,65.29,34.87S14.49,42.41,14.87,41.82s62,40.37,62.41,39.8S18.53,36.6,18.96,36.04s58.7,45.03,59.15,44.49S23,31.12,23.47,30.6s55.06,49.42,55.55,48.92S27.88,26.01,28.39,25.52s51.09,53.51,51.62,53.05S33.14,21.29,33.68,20.85s46.84,57.27,47.4,56.85S38.73,17,39.3,16.6s42.33,60.68,42.92,60.3S44.62,13.15,45.23,12.79s37.58,63.73,38.2,63.4S50.79,9.76,51.42,9.45s32.62,66.41,33.26,66.12S57.2,6.85,57.85,6.59s27.47,68.7,28.13,68.46S63.81,4.44,64.48,4.23s22.16,70.59,22.84,70.41S70.59,2.53,71.28,2.38s16.7,72.08,17.39,71.94S77.51,1.15,78.2,1.05s11.12,73.14,11.82,73.07S84.52,.3,85.22,.25s5.47,73.78,6.17,73.76S91.58,0,92.29,0s-.24,73.99,.47,74.01S98.65,.24,99.36,.29s-5.95,73.75-5.25,73.83S105.68,1.02,106.38,1.13s-11.6,73.07-10.91,73.21S112.61,2.34,113.3,2.5s-17.16,71.97-16.48,72.16S119.4,4.18,120.07,4.39s-22.57,70.46-21.9,70.7S126.01,6.52,126.66,6.78s-27.81,68.56-27.17,68.85S132.45,9.36,133.07,9.67s-32.95,66.24-32.34,66.58S138.67,12.7,139.27,13.06s-37.95,63.51-37.36,63.9,42.71-60.44,43.29-60.04-42.73,60.4-42.17,60.83,47.25-56.97,47.79-56.52-47.26,56.92-46.74,57.39,51.5-53.16,52.01-52.67-51.51,53.11-51.02,53.62,55.44-49.04,55.9-48.51-55.44,49-54.99,49.54,59.03-44.64,59.46-44.08-59.02,44.61-58.62,45.19,62.27-40,62.65-39.41-62.26,39.98-61.9,40.58,65.14-35.14,65.47-34.52-65.12,35.12-64.81,35.75,67.63-30.08,67.91-29.44-67.6,30.06-67.34,30.72,69.72-24.85,69.95-24.18-69.7,24.83-69.49,25.5,71.41-19.46,71.59-18.78-71.39,19.44-71.23,20.12,72.69-13.95,72.82-13.26-72.67,13.92-72.56,14.61,73.54-8.34,73.62-7.64-73.52,8.3-73.47,9,73.97-2.66,73.99-1.95-73.94,2.61-73.94,3.32,73.95,3.05,73.92,3.76-73.92-3.1-73.98-2.4,73.49,8.75,73.41,9.45-73.46-8.79-73.57-8.09,72.6,14.38,72.47,15.07-72.57-14.4-72.73-13.72,71.29,19.89,71.1,20.57-71.26-19.89-71.48-19.22,69.58,25.24,69.34,25.9Z"/>
  <path class="cls-1" d="M51.82,144.41c-2.37,0-3.56-.94-3.56-2.82v-.59c0-1.19,.99-2.99,2.97-5.42,1.98-2.42,2.97-4.87,2.97-7.35V55.21c0-2.47-.99-4.92-2.97-7.35-1.98-2.42-2.97-4.23-2.97-5.42v-.59c0-1.88,1.19-2.82,3.56-2.82h36.95c14.35,0,25.82,2.87,34.43,8.61,8.61,5.74,12.91,14.6,12.91,26.57,0,11.18-3.86,20.11-11.58,26.79-7.72,6.68-18.01,10.02-30.87,10.02h-12.32v17.22c0,2.47,1.11,4.92,3.34,7.35,2.23,2.43,3.34,4.23,3.34,5.42v.59c0,1.88-1.19,2.82-3.56,2.82H51.82Zm36.36-43.78h5.49c4.65,0,8.24-1.93,10.76-5.79,2.52-3.86,3.78-8.66,3.78-14.4,0-9.2-2-16.7-6.01-22.48-4.01-5.79-8.49-8.68-13.43-8.68h-2.08c-3.56,0-5.34,2.37-5.34,7.12v37.1c0,4.75,2.27,7.12,6.83,7.12Z"/>
  <path class="cls-1" d="M178.86,145.9c-11.48,0-21.2-3.54-29.16-10.61-7.97-7.07-11.95-15.96-11.95-26.64s3.96-19.52,11.87-26.49c7.91-6.98,17.31-10.46,28.2-10.46s20.88,3.51,28.79,10.54c7.91,7.03,11.87,15.93,11.87,26.71s-3.86,19.52-11.58,26.49c-7.72,6.98-17.07,10.46-28.05,10.46Zm3.12-7.27c6.33,0,9.5-6.08,9.5-18.25,0-4.45-.62-9.74-1.85-15.88-1.24-6.13-3.32-11.92-6.23-17.36-2.92-5.44-6.16-8.16-9.72-8.16s-5.94,1.54-7.42,4.6c-1.48,3.07-2.23,7.72-2.23,13.95,0,3.27,.39,7.12,1.19,11.58,.79,4.45,1.88,8.93,3.27,13.43,1.38,4.5,3.29,8.31,5.71,11.43,2.42,3.12,5.02,4.67,7.79,4.67Z"/>
  <path class="cls-1" d="M306.05,128.23c.2,2.47,1.14,4.92,2.82,7.35,1.68,2.43,2.52,4.28,2.52,5.57v.59c0,1.88-1.19,2.82-3.56,2.82h-29.68c-2.37,0-3.56-.94-3.56-2.82v-.59c0-1.19,.94-3.02,2.82-5.49,1.88-2.47,2.72-4.95,2.52-7.42l-1.48-26.57c-.4-7.32-1.36-12.51-2.89-15.58-1.54-3.07-3.98-4.6-7.35-4.6-3.17,0-5.57,1.29-7.2,3.86-1.63,2.57-2.45,6.08-2.45,10.54v32.35c0,2.47,1.09,4.95,3.27,7.42,2.17,2.47,3.26,4.3,3.26,5.49v.59c0,1.88-1.19,2.82-3.56,2.82h-32.06c-2.37,0-3.56-.94-3.56-2.82v-.59c0-1.19,1.09-3.02,3.27-5.49,2.17-2.47,3.26-4.95,3.26-7.42v-29.24c0-2.08-.64-3.83-1.93-5.27-1.29-1.43-2.6-2.67-3.93-3.71-1.34-1.04-2-2.15-2-3.34v-.44c0-1.29,1.19-2.52,3.56-3.71l20.78-10.24c1.88-.79,3.29-.82,4.23-.07,.94,.74,1.41,1.96,1.41,3.64v6.98c4.16-7.42,11.23-11.13,21.22-11.13,7.42,0,13.8,2.43,19.15,7.27,5.34,4.85,8.41,12.71,9.2,23.6l1.93,25.68Z"/>
  <path class="cls-1" d="M392.13,128.23c0,2.47,.99,4.92,2.97,7.35,1.98,2.43,2.97,4.23,2.97,5.42v.59c0,1.88-1.14,2.82-3.41,2.82h-21.22c-2.57,0-3.86-1.24-3.86-3.71v-1.34c-4.65,4.36-10.69,6.53-18.11,6.53-9.6,0-17.84-3.29-24.71-9.87-6.88-6.58-10.31-15.66-10.31-27.23,0-10.78,3.46-19.66,10.39-26.64,6.92-6.98,15.19-10.46,24.79-10.46,6.03,0,11.13,1.39,15.29,4.16v-19.74c0-1.98-.64-3.69-1.93-5.12-1.29-1.43-2.6-2.67-3.93-3.71-1.34-1.04-2-2.15-2-3.34v-.45c0-1.88,1.14-3.17,3.41-3.86l23.15-6.98c4.35-1.38,6.53-.2,6.53,3.56v92.02Zm-34.73,10.39c2.67,.1,4.92-.99,6.75-3.26,1.83-2.28,2.75-5.34,2.75-9.2v-28.64c0-4.75-1.36-9.03-4.08-12.84-2.72-3.81-5.81-5.71-9.28-5.71-7.32,0-11.23,6.08-11.72,18.25-.2,4.65,.22,10.04,1.26,16.18,1.04,6.14,2.82,11.85,5.34,17.14,2.52,5.29,5.52,7.99,8.98,8.09Z"/>
  <path class="cls-1" d="M466.34,120.96c1.09-1.09,2.3-1.41,3.64-.96s1.95,1.46,1.86,3.04c-.1,2.28-.77,4.65-2,7.12-1.24,2.47-2.99,4.92-5.27,7.35-2.28,2.43-5.42,4.43-9.42,6.01-4.01,1.58-8.53,2.38-13.58,2.38-11.08,0-20.11-3.46-27.08-10.39-6.98-6.92-10.46-15.98-10.46-27.16s3.56-19.56,10.69-26.34c7.12-6.78,15.83-10.21,26.12-10.31,8.81-.1,15.93,1.83,21.37,5.79,5.44,3.96,8.16,9.2,8.16,15.73,0,5.15-2.2,9.7-6.61,13.65-4.4,3.96-10.12,6.48-17.14,7.57-4.95,.89-9.89,1.24-14.84,1.04,4.16,8.01,10.39,12.02,18.7,12.02,7.32,0,12.62-2.17,15.88-6.53Zm-28.64-41.41c-3.07,0-5.52,1.54-7.35,4.6-1.83,3.07-2.75,7.08-2.75,12.02,0,4.06,.45,7.87,1.34,11.43,2.77,.1,5.24,0,7.42-.3,6.73-1.19,10.09-6.53,10.09-16.03-.1-3.27-.96-6.03-2.6-8.31-1.63-2.27-3.69-3.41-6.16-3.41Z"/>
  <path class="cls-1" d="M528.22,71.69c4.25,0,7.64,1.39,10.17,4.16,2.52,2.77,3.79,6.28,3.79,10.54,0,9.3-3.81,13.95-11.43,13.95-3.07,0-5.39-.72-6.98-2.15-1.58-1.43-2.5-3.04-2.75-4.82-.25-1.78-.77-3.39-1.56-4.82-.79-1.43-1.98-2.15-3.56-2.15-3.66,0-5.49,4.75-5.49,14.25v27.6c0,2.47,1.31,4.92,3.93,7.35,2.62,2.43,3.93,4.23,3.93,5.42v.59c0,1.88-1.19,2.82-3.56,2.82h-31.91c-2.38,0-3.56-.94-3.56-2.82v-.59c0-1.19,.99-2.99,2.97-5.42,1.98-2.42,2.97-4.87,2.97-7.35v-29.53c0-1.98-.59-3.66-1.78-5.05-1.19-1.38-2.38-2.57-3.56-3.56-1.19-.99-1.78-2.08-1.78-3.27v-.45c0-1.68,1.14-3.12,3.41-4.3l20.93-9.8c1.98-.69,3.36-.74,4.16-.15,.79,.59,1.19,1.73,1.19,3.41v10.83c3.36-9.79,10.19-14.69,20.48-14.69Z"/>
</svg>