<?xml version="1.0" encoding="UTF-8"?>
<svg id="Layer_1" data-name="Layer 1" xmlns="http://www.w3.org/2000/svg" viewBox="0 0 500 500">
  <defs>
    <style>
      .cls-1 {
        fill: #fff;
      }

      .cls-2 {
        fill: #802bb1;
      }
    </style>
  </defs>
  <path class="cls-2" d="M469.61,329.61c-.86,2.37-70.83-21.81-71.77-19.49s66.08,33.76,65.05,36.04-68.97-27.11-70.09-24.87,63.32,38.69,62.12,40.89-66.69-32.31-67.98-30.16,60.16,43.44,58.8,45.54-64.01-37.35-65.45-35.3,56.63,47.95,55.11,49.94-60.94-42.18-62.54-40.25,52.77,52.17,51.09,54.04-57.5-46.75-59.25-44.95,48.59,56.08,46.78,57.81-53.74-51.04-55.61-49.37,44.14,59.65,42.2,61.23-49.66-55.01-51.67-53.49,39.45,62.85,37.39,64.28-45.32-58.64-47.43-57.28,34.54,65.68,32.38,66.95-40.71-61.92-42.92-60.73,29.44,68.11,27.19,69.22-35.88-64.84-38.18-63.82,24.17,70.16,21.84,71.09-30.84-67.39-33.21-66.54,18.76,71.79,16.37,72.55-25.62-69.54-28.04-68.88,13.23,73.02,10.78,73.58-20.23-71.29-22.7-70.82,7.61,73.81,5.12,74.19-14.7-72.63-17.2-72.35,1.92,74.18-.59,74.37-9.07-73.55-11.59-73.46-3.8,74.11-6.32,74.1-3.37-74.03-5.89-74.14-9.51,73.59-12.02,73.39,2.35-74.07-.15-74.37-15.15,72.64-17.64,72.25,8.05-73.67,5.57-74.16-20.68,71.26-23.14,70.68,13.66-72.84,11.23-73.52-26.05,69.48-28.45,68.71,19.14-71.59,16.77-72.45-31.23,67.31-33.55,66.37,24.46-69.96,22.18-70.98-36.24,64.75-38.48,63.64,29.72-67.89,27.53-69.09-41.09,61.79-43.24,60.51,34.85-65.4,32.75-66.77-45.73,58.44-47.77,57,39.79-62.52,37.8-64.04-50.1,54.74-52.03,53.14,44.5-59.26,42.63-60.94-54.17,50.72-55.97,48.97,48.93-55.66,47.2-57.47-57.91,46.4-59.57,44.52,53.06-51.73,51.47-53.68-61.3,41.82-62.81,39.82,56.87-47.52,55.43-49.58-64.31,37.02-65.67,34.91,60.33-43.04,59.05-45.2-66.95,32.01-68.14,29.8,63.43-38.32,62.32-40.58-69.19,26.82-70.21,24.53,66.16-33.38,65.23-35.72-71.03,21.48-71.87,19.11,68.51-28.25,67.76-30.64-72.46,16-73.12,13.58,70.47-22.94,69.9-25.39-73.47,10.42-73.94,7.95,72.02-17.48,71.64-19.96-74.05,4.76-74.33,2.26,73.15-11.89,72.96-14.4-74.2-.95-74.29-3.46,73.85-6.22,73.85-8.74-73.9-6.66-73.8-9.18,74.11-.51,74.31-3.02-73.17-12.35-72.87-14.84,73.92,5.21,74.32,2.72-72-17.94-71.51-20.41,73.31,10.87,73.89,8.42-70.42-23.4-69.74-25.82,72.27,16.43,73.03,14.03-68.44-28.66-67.58-31.03,70.83,21.81,71.77,19.49-66.08-33.76-65.05-36.04,68.97,27.11,70.09,24.87-63.32-38.69-62.12-40.89,66.69,32.31,67.98,30.16-60.16-43.44-58.8-45.54,64.01,37.35,65.45,35.3-56.63-47.95-55.11-49.94,60.94,42.18,62.54,40.25-52.77-52.17-51.09-54.04,57.5,46.75,59.25,44.95-48.59-56.08-46.78-57.81,53.74,51.04,55.61,49.37-44.14-59.65-42.2-61.23,49.66,55.01,51.67,53.49-39.45-62.85-37.39-64.28,45.32,58.64,47.43,57.28-34.54-65.68-32.38-66.95,40.71,61.92,42.92,60.73-29.44-68.11-27.19-69.22,35.88,64.84,38.18,63.82-24.17-70.16-21.84-71.09,30.84,67.39,33.21,66.54-18.76-71.79-16.37-72.55,25.62,69.54,28.04,68.88-13.23-73.02-10.78-73.58,20.23,71.29,22.7,70.82-7.61-73.81-5.12-74.19,14.7,72.63,17.2,72.35-1.92-74.18,.59-74.37,9.07,73.55,11.59,73.46,3.8-74.11,6.32-74.1,3.37,74.03,5.89,74.14,9.51-73.59,12.02-73.39-2.35,74.07,.15,74.37,15.15-72.64,17.64-72.25-8.05,73.67-5.57,74.16,20.68-71.26,23.14-70.68-13.66,72.84-11.23,73.52,26.05-69.48,28.45-68.71-19.14,71.59-16.77,72.45,31.23-67.31,33.55-66.37-24.46,69.96-22.18,70.98,36.24-64.75,38.48-63.64-29.72,67.89-27.53,69.09,41.09-61.79,43.24-60.51-34.85,65.4-32.75,66.77,45.73-58.44,47.77-57-39.79,62.52-37.8,64.04,50.1-54.74,52.03-53.14-44.5,59.26-42.63,60.94,54.17-50.72,55.97-48.97-48.93,55.66-47.2,57.47,57.91-46.4,59.57-44.52-53.06,51.73-51.47,53.68,61.3-41.82,62.81-39.82-56.87,47.52-55.43,49.58,64.31-37.02,65.67-34.91-60.33,43.04-59.05,45.2,66.95-32.01,68.14-29.8-63.43,38.32-62.32,40.58,69.19-26.82,70.21-24.53-66.16,33.38-65.23,35.72,71.03-21.48,71.87-19.11-68.51,28.25-67.76,30.64,72.46-16,73.12-13.58-70.47,22.94-69.9,25.39,73.47-10.42,73.94-7.95-72.02,17.48-71.64,19.96,74.05-4.76,74.33-2.26-73.15,11.89-72.96,14.4,74.2,.95,74.29,3.46-73.85,6.22-73.85,8.74,73.9,6.66,73.8,9.18-74.11,.51-74.31,3.02,73.17,12.35,72.87,14.84-73.92-5.21-74.32-2.72,72,17.94,71.51,20.41-73.31-10.87-73.89-8.42,70.42,23.4,69.74,25.82-72.27-16.43-73.03-14.03,68.44,28.66,67.58,31.03Z"/>
  <path class="cls-1" d="M106.67,437.06c-8.43,0-12.65-3.33-12.65-10.01v-2.11c0-4.22,3.51-10.62,10.54-19.23,7.02-8.61,10.54-17.3,10.54-26.08V120.37c0-8.78-3.52-17.47-10.54-26.08-7.03-8.6-10.54-15.02-10.54-19.23v-2.11c0-6.67,4.22-10.01,12.65-10.01H237.88c50.93,0,91.69,10.19,122.25,30.56,30.56,20.38,45.84,51.82,45.84,94.32,0,39.7-13.7,71.4-41.1,95.11-27.4,23.71-63.94,35.57-109.6,35.57h-43.74v61.12c0,8.79,3.95,17.48,11.86,26.08,7.9,8.61,11.86,15.02,11.86,19.23v2.11c0,6.68-4.22,10.01-12.65,10.01H106.67Zm129.1-155.44h19.5c16.51,0,29.24-6.85,38.2-20.55,8.96-13.7,13.44-30.74,13.44-51.11,0-32.67-7.11-59.28-21.34-79.83-14.23-20.55-30.13-30.83-47.69-30.83h-7.38c-12.65,0-18.97,8.43-18.97,25.29v131.73c0,16.86,8.08,25.29,24.24,25.29Z"/>
</svg>